<?xml version="1.0" encoding="iso-8859-1"?>
<!DOCTYPE svg PUBLIC "-//W3C//DTD SVG 1.1//EN" "http://www.w3.org/Graphics/SVG/1.1/DTD/svg11.dtd">
<svg version="1.1" id="Layer_1" xmlns="http://www.w3.org/2000/svg" xmlns:xlink="http://www.w3.org/1999/xlink" x="0px" y="0px"
	 width="2552.893px" height="854px" viewBox="0 0 2552.893 854" style="enable-background:new 0 0 2552.893 854;"
	 xml:space="preserve">
<g id="Layer_2">
		<linearGradient id="SVGID_1_" gradientUnits="userSpaceOnUse" x1="1267.5264" y1="-22.9961" x2="1267.5264" y2="831.0039" gradientTransform="matrix(1 0 0 -1 8.5 830)">
		<stop  offset="0" style="stop-color:#FFFFFF"/>
		<stop  offset="1" style="stop-color:#B5E6F2"/>
	</linearGradient>
	<rect style="fill:url(#SVGID_1_);" width="2552.053" height="854"/>
</g>
<g id="Layer_1_1_">
	<path style="fill:#A7E1AE;" d="M351.053,211c20.104,12.183,53.394,80.458,68,104c25.725,41.459,59.833,80.46,89,119
		c21.331,32.663,42.669,65.336,64,98c11.909,16.096,65.9,86.239,63,106c-29.362,10.223-61.728,24.979-95,32
		c-37.06,7.82-84.447,2.996-126,3c-81.058,0.008-173.511,6.411-238-14c-34.617-10.956-81.406-41.899-103-66
		c-8-11.665-16-23.335-24-35c-14.29-14.206-34.632-18.508-47-35c-0.104-29.647,21.099-51.702,32-73
		c8.999-17.998,18.001-36.002,27-54c15.332-8.999,30.668-18.001,46-27c31.936-20.91,61.404-47.541,93-68
		c21.665-9.666,43.336-19.334,65-29c22.371-14.56,43.55-29.93,64-46C336.386,221,343.72,216,351.053,211z"/>
	<path style="fill:#A7E1AE;" d="M2552.053,686c-53.437,1.602-110.156,13.927-158,24c-46.05,9.696-91.635,7.357-140,16
		c-56.562,10.106-112.85,15.998-175,20c-87.504,5.634-94.761-20.202-131-64c-8.545-10.328-36.558-26.557-25-46
		c18.621-3.815,18.121-21.943,27-37c17.665-30.997,35.335-62.003,53-93c12.887-16.643,26.746-33.932,40-51
		c19.665-19.665,39.336-39.335,59-59c16.665-20.331,33.336-40.669,50-61c4-2.667,8.001-5.333,12-8
		c10.333-27.997,20.668-56.003,31-84c33.215-83.292,54.043-172.961,99-243c36.436,4.832,98.307,110.5,118,142
		c43.244,69.169,84.914,132.324,117,215c7.666,13.998,15.334,28.002,23,42C2552.053,494.657,2552.053,590.343,2552.053,686z"/>
	<path style="fill:#B7E5B6;" d="M2294.053,1c48.973,1.129,65.528,79.332,92,107c6.666,6,13.334,12,20,18
		c11.703,19.828,21.1,41.184,34,60c15.84,23.101,41.156,46.981,52,74c6.078,15.143,2.771,27.778,10,40
		c7.333,10.666,14.668,21.334,22,32c6.642,11.668,7.611,23.527,13,37c5,7.999,10.001,16.001,15,24c0,58.66,0,117.339,0,176
		c-0.333,0-0.666,0-1,0c-41.246-13.031-87.025-15.919-132-26c-27.33-7.332-54.669-14.668-82-22c-24.244-6.199-61.117-2.032-81-14
		c-17.275-10.398,3.519-95.484,8-116c5.307-24.281,24.685-38.036,32-69c-1.333-8.999-2.666-18.001-4-27
		c0.667-20.332,1.334-40.669,2-61c4.303-11.028,19.031-15.587,22-28c11.238-46.978-13.494-71.56-14-111
		c3.667-4.667,7.334-9.334,11-14c3.269-13.394-6.711-26.272-9-40c-0.333-9.999-0.666-20.001-1-30c-3.666-2.667-7.333-5.333-11-8
		C2292.72,2.333,2293.387,1.667,2294.053,1z"/>
	<path style="fill:#B7E5B6;" d="M353.058,216.001c16.891,4.383,28.355,32.781,35.63,46.402c4.838,9.058,8.683,19.313,14.293,27.891
		c10.787,16.496,22.559,27.257,31.072,45.706c7,7.666,14,15.334,21,23c11.639,18.344,21.62,35.446,34,54
		c19.998,26.331,40.002,52.669,60,79c4,10.332,8,20.668,12,31c5.655,8.622,14.107,14.151,19,24c-0.667,0.666-1.333,1.334-2,2
		c-21.028,4.969-53.102-23.185-76-30c-26.883-8.002-51.566-20.345-77-27c-14.967-3.916-38.646-3.781-49-13
		c-5.417-4.823-3.683-11.54-6-20c-4.449-16.246-13.168-38.11-17-56c-2.688-12.549,5.768-18.545,5-28
		c-1.689-20.854-7.153-23.775,3-42c-6.7-8.425-16.417-29.794-14-46c0.806-5.398,6.185-11.281,4-21c-1.727-7.687-9.384-15.479-7-27
		C347.053,231.334,350.053,223.666,353.058,216.001z"/>
	<path style="fill:#9EDEA5;" d="M2.298,394.256c31.048-1.308,62.955-2.066,89.838,15.899c21.381,14.289,39.649,33.209,60.616,48.217
		c22.647,16.209,42.125,18.337,69.353,16.984c27.244-1.354,53.432,0.758,80.001,7.017c31.777,7.487,62.121,13,94.82,14.812
		c-0.567,0.367-1.336,1.26-2.388,1.751c22.168,0.982,44.247,2.369,65.575,8.956c19.708,6.087,38.464,14.758,58.312,20.505
		c51.356,14.867,102.309,22.845,144.891,57.818c18.323,15.051,35.015,31.863,54.956,44.889
		c22.936,14.979,48.808,25.604,75.605,31.26c23.628,4.984,48.518,6.155,71.979-0.326c18.988-5.245,35.918-15.521,53.768-23.547
		c43.689-19.646,86.753-18.204,133.406-20.31c47.645-2.149,90.669-24.934,137.897-28.117c25.246-1.701,50.527,0.377,75.771-2.109
		c30.681-3.021,60.369-11.045,89.551-20.723c24.407-8.097,48.565-16.812,73.978-21.265c26.373-4.621,53.448-5.892,80.185-5.216
		c54.247,1.372,106.067,16.837,158.532,29.173c56.211,13.217,111.531,34.235,169.006,41.107c12.785,1.529,25.481,2.492,38.217,4.423
		c14.84,2.249,29.938,0.561,44.834,2.201c15.257,1.679,30.268,5.094,45.642,5.787c26.159,1.179,52.562-1.393,76.684-12.189
		c19.09-8.544,35.143-21.885,52.141-33.8c23.255-16.3,48.446-29.135,75.212-38.63c58.282-20.674,120.272-24.701,180.661-35.968
		c31.081-5.8,62.197-12.438,93.854-14.074c27.134-1.4,59.562-0.198,81.271,18.457c21.373,18.363,23.965,48.92,24.883,75.223
		c1.372,39.308-0.263,78.75,0.092,118.079c0.094,10.403,0.227,20.807,0.359,31.209c-20.072,2.461-41.884,0.252-62.18,0.253
		c-20.828,0-41.656-0.003-62.484-0.003c-41.636,0-83.271,0-124.905,0.001c-82.744,0.002-165.489,0.001-248.234,0
		c-82.979,0-165.96-0.001-248.939,0c-83.001,0.001-166.003,0-249.005,0c-83.008-0.001-166.014,0.001-249.02,0
		c-83.01-0.001-166.019,0-249.027,0c-82.726,0-165.45,0.001-248.176,0c-83.275-0.001-166.552,0.001-249.829,0
		c-82.721-0.001-165.441-0.001-248.163,0.001c-83.283,0.001-166.564,0.008-249.847-0.001c-19.506-0.002-40.391,2.046-59.686-0.252
		c-2.488-21.479-0.251-44.662-0.251-66.363c0-21.642,0-43.283,0-64.925c-0.001-43.849-0.002-87.695,0-131.543
		C2.053,444.787-1.145,418.052,2.298,394.256z"/>
	<path style="fill:#83C692;" d="M2552.053,854c-849.915,0-1700.085,0-2550,0c0-88.657,0-177.343,0-266c0-20.677-5.751-88.052,2-101
		c8.931-17.191,124.194-70.615,160-46c38.133,26.215,75.888,55.306,113,86c13.332,6.332,74.668,51.002,92,67
		c4.333,0,128,47.334,128,48c19.967,6.803,37.646,10.08,55,19c11.445,5.883,27.493,3.78,40,10c19.332,0.666,38.669,1.334,58,2
		c41.312,0.007,134.558,7.698,165-4c42.393-16.289,131.553-73.823,150-80c7-3.999,31-13.334,36-14
		c21.789-10.452,49.102-21.849,69-36c11.666-10.332,23.335-20.668,35-31c14.043-8.67,68.945,18.919,76,23
		c19.332,11.665,38.669,23.335,58,35c21.131,9.526,39.791,13.806,61,24c12.999,7.666,26.002,15.334,39,23
		c27.567,12.602,127.258,50.145,143,58c17.998,1.333,36.002,2.667,54,4c9.666,0,312.823,14.998,348,15c13.332,0,26.668,0,40,0
		c19.073,6.942,152.586,40.691,165,35c23.59-13.565,39.65-72.316,57-96c20.213-27.593,49.731-53.22,73-81
		c11.016-18.825,108.033-142.564,113-153c66.225-0.927,212.904,67.44,217,73c6.237,5.569,3.001,81.045,3,97
		C2552.053,661.323,2552.053,757.677,2552.053,854z"/>
	<path style="fill:#689E74;" d="M2552.053,854c-849.915,0-1700.085,0-2550,0c0-73.326,2-242.667,0-243
		c56.234-1.156,76.488,20.177,110,39c21.289,11.958,46.08,14.905,69,26c24.521,11.869,50.021,26.031,80,33c52.995,0,106.005,0,159,0
		c104.656,1.666,209.344,3.334,314,5c59.994,0,339.669,21.999,360,17c43.32-8.056,97.494-3.756,137,4
		c48.604,9.543,86.949,22.845,131,36c24.331,4.333,48.669,8.667,73,13c8.666,3.666,81.336,13,109,14
		c35.898,6.169,81.428,4.998,124,5c81.689,0.002,153.055-1.476,222-13c15.332,0,30.668,0,46,0c69.396,0,115.188,14.989,184,15
		c16.666-0.666,33.336-1.334,50-2c27.207-6.253,214.799-126.425,241-138c8-6.332,16.001-12.668,24-19
		c12.989-9.602,29.098-17.657,45-24c24.549-9.79,55.596-13.107,72-31C2552.053,678.657,2552.053,766.343,2552.053,854z"/>
</g>
</svg>
