<?xml version="1.0" encoding="UTF-8" standalone="no"?>
<svg width="213px" height="202px" viewBox="0 0 213 202" version="1.1" xmlns="http://www.w3.org/2000/svg" xmlns:xlink="http://www.w3.org/1999/xlink" xmlns:sketch="http://www.bohemiancoding.com/sketch/ns">
    <!-- Generator: Sketch 3.3.3 (12081) - http://www.bohemiancoding.com/sketch -->
    <title>Buck Copy 6 + Polygon 1 Copy 3</title>
    <desc>Created with Sketch.</desc>
    <defs>
        <path id="path-1" d="M54.1939013,146.310219 C60.2582512,143.475432 66.7159652,135.20048 72.1818951,125.277341 L54.1939013,111.27661"></path>
    </defs>
    <g id="Page-1" stroke="none" stroke-width="1" fill="none" fill-rule="evenodd" sketch:type="MSPage">
        <g id="Buck-Copy-6-+-Polygon-1-Copy-3" sketch:type="MSLayerGroup" transform="translate(1.000000, -15.000000)">
            <g id="Buck-Copy-6" transform="translate(51.000000, 36.000000)">
                <path d="M34.1176471,122.218978 L54.1176471,122.218978 L54.1176471,161 L32.3529412,141.609489 L34.1176471,122.218978 Z M74.1176471,122.218978 L54.1176471,122.218978 L54.1176471,161 L75.8823529,141.609489 L74.1176471,122.218978 Z" id="Rectangle-10" fill="#FFFFFF" sketch:type="MSShapeGroup"></path>
                <g id="right-horn" transform="translate(62.352941, 0.000000)" stroke="#FFFFFF" stroke-width="10" sketch:type="MSShapeGroup" stroke-linecap="round">
                    <path d="M0.417189247,80.5 L37.4760128,53.4708029 L37.4760128,21.1319248 L16.636137,0.314866373" id="Path-8" stroke-linejoin="bevel"></path>
                    <path d="M24.1176471,60.5218978 L6.31441653,42.7381599" id="Path-9"></path>
                    <path d="M11.1764706,22.0346715 L37.0588235,22.0346715" id="Path-10"></path>
                </g>
                <g id="right-horn-copy" transform="translate(29.823529, 40.500000) scale(-1, 1) translate(-29.823529, -40.500000) translate(10.823529, 0.000000)" stroke="#FFFFFF" stroke-width="10" sketch:type="MSShapeGroup" stroke-linecap="round">
                    <path d="M0.417189247,80.5 L37.4760128,53.4708029 L37.4760128,21.1319248 L16.636137,0.314866373" id="Path-8" stroke-linejoin="bevel"></path>
                    <path d="M24.1176471,60.5218978 L6.31441653,42.7381599" id="Path-9"></path>
                    <path d="M11.1764706,22.0346715 L37.0588235,22.0346715" id="Path-10"></path>
                </g>
                <path d="M54.1939013,146.310219 C48.0663233,143.445876 41.5371358,135.027336 36.0352658,124.966426 L53.9088503,111.054745 L54.1939013,111.27661" id="Path" fill="#FFFFFF" sketch:type="MSShapeGroup"></path>
                <g id="Path">
                    <use fill="#FFFFFF" fill-rule="evenodd" sketch:type="MSShapeGroup" xlink:href="#path-1"></use>
                    <use fill="none" xlink:href="#path-1"></use>
                </g>
                <path id="Path-20" stroke="#979797" sketch:type="MSShapeGroup" d=""></path>
                <path d="M54.1131138,64.0490273 C31.1663195,72.0568166 22.9319931,75.6168647 21.1590985,90.8724223 C20.4457205,104.09254 38.5103905,135.487773 54.1085805,141.018686 C54.1116026,141.020828 54.1146248,141.019757 54.1176471,141.018686 C54.114625,141.020828 54.1116028,141.019757 54.1085805,141.018686 L54.1131138,64.0490273 Z M54.1221804,64.3232651 C77.0689746,72.3310545 85.303301,75.8911025 87.0761956,91.1466601 C87.7895736,104.366778 69.7249036,135.762011 54.1267137,141.292924 C54.1236916,141.295066 54.1206694,141.293995 54.1176471,141.292924 C54.1206692,141.295066 54.1236914,141.293995 54.1267137,141.292924 L54.1221804,64.3232651 Z" id="Head-Copy" fill="#FFFFFF" sketch:type="MSShapeGroup"></path>
                <g id="ears-copy" transform="translate(0.500000, 68.500000)" fill="#FFFFFF" sketch:type="MSShapeGroup">
                    <path d="M80.8270314,17.6109825 C80.8270314,17.6109825 97.7291433,0.150398132 98.5047016,3.40417678 C106.495742,45.6393853 82.6878517,28.0529948 80.8270313,29.5671277 C78.9662109,31.0812607 80.8270314,17.6109825 80.8270314,17.6109825 Z" id="right-ear" transform="translate(90.069627, 17.469582) rotate(-315.000000) translate(-90.069627, -17.469582) "></path>
                    <path d="M8.82703137,17.6109825 C8.82703137,17.6109825 25.7291433,0.150398132 26.5047016,3.40417678 C34.4957419,45.6393853 10.6878517,28.0529948 8.82703126,29.5671277 C6.96621086,31.0812607 8.82703137,17.6109825 8.82703137,17.6109825 Z" id="right-ear-copy-2" transform="translate(18.069627, 17.469582) scale(-1, 1) rotate(-315.000000) translate(-18.069627, -17.469582) "></path>
                </g>
            </g>
            <polygon id="Polygon-1-Copy-3" stroke="#FFFFFF" stroke-width="10" sketch:type="MSShapeGroup" transform="translate(105.500000, 105.451676) rotate(-180.000000) translate(-105.500000, -105.451676) " points="105.5 0.451675982 205.360934 73.0048916 167.217451 190.39846 43.7825485 190.39846 5.63906579 73.0048916 "></polygon>
        </g>
    </g>
</svg>