<?xml version="1.0" encoding="UTF-8" standalone="no"?>
<svg width="212px" height="202px" viewBox="0 0 212 202" version="1.1" xmlns="http://www.w3.org/2000/svg" xmlns:xlink="http://www.w3.org/1999/xlink" xmlns:sketch="http://www.bohemiancoding.com/sketch/ns">
    <!-- Generator: Sketch 3.3.3 (12081) - http://www.bohemiancoding.com/sketch -->
    <title>Buck Copy 3 + Polygon 1</title>
    <desc>Created with Sketch.</desc>
    <defs></defs>
    <g id="Page-1" stroke="none" stroke-width="1" fill="none" fill-rule="evenodd" sketch:type="MSPage">
        <g id="Buck-Copy-3-+-Polygon-1" sketch:type="MSLayerGroup" transform="translate(1.000000, -15.000000)">
            <path d="M73.524205,50.0346715 L86.7209892,36.8523363 C88.6746799,34.9007847 88.676414,31.7349603 86.7248624,29.7812696 C84.7733107,27.8275789 81.6074863,27.8258448 79.6537956,29.7773964 L58.8139198,50.5944548 L57.3475166,54.1319248 L57.3475166,86.4708029 L59.4011479,90.5104701 L81.8871425,106.910839 L81.8871425,106.910839 C79.3846789,108.568445 77.4364152,110.37992 75.9476694,112.530513 C73.3506143,112.498071 52.0134137,112.312154 53.6593847,114.988337 C62.7441414,128.313037 69.0397097,132.518443 73.4862433,132.558793 L73.4862433,132.558793 C75.5497811,139.598641 79.812064,148.142317 85.0735743,155.703248 L83.3529412,174.609489 L105.117647,194 L105.117646,174.018686 C105.117646,174.018686 105.117646,174.018686 105.117647,174.019757 L105.117647,174.292925 C105.117649,174.292924 105.117648,174.292924 105.117647,174.292924 L105.117647,194 L126.882353,174.609489 L125.18379,155.945756 C130.513673,148.279716 134.815376,139.607723 136.840016,132.518681 L136.840016,132.518681 C141.322809,133.008904 147.826807,129.146576 157.479869,114.988337 C159.232236,112.139166 134.93414,112.534065 134.93414,112.534065 C134.93414,112.534065 134.731883,112.687225 134.388702,112.952327 C133.153493,111.129493 131.594409,109.549791 129.655029,108.10283 L129.655029,108.10283 L153.775323,90.5104701 L155.828954,86.4708029 L155.828954,54.1319248 L154.362551,50.5944548 L133.522675,29.7773964 C131.568984,27.8258448 128.40316,27.8275789 126.451608,29.7812696 C124.500057,31.7349603 124.501791,34.9007847 126.455481,36.8523363 L139.652266,50.0346715 L124.529412,50.0346715 C121.767988,50.0346715 119.529412,52.2732478 119.529412,55.0346715 C119.529412,57.7960953 121.767988,60.0346715 124.529412,60.0346715 L145.828954,60.0346715 L145.828954,86.4708029 L147.882585,82.4311357 L139.536547,88.5183964 L123.200955,72.2006899 C121.247264,70.2491383 118.081439,70.2508724 116.129888,72.2045631 C114.178336,74.1582538 114.18007,77.3240782 116.133761,79.2756298 L131.358171,94.4833707 L119.908322,102.834424 C115.8404,101.108009 110.956901,99.3594194 105.12218,97.3232651 L105.12559,155.218978 L105.12559,155.218978 L105.117647,155.218978 L105.117645,174.018687 C105.117645,174.018687 105.117644,174.018687 105.117647,174.018687 L105.117647,155.218978 L105.109688,155.218978 L105.113114,97.0490273 C100.04028,98.8193043 95.6864697,100.372213 91.9625375,101.882165 L81.8182997,94.4833707 L81.8182997,94.4833707 L97.0427097,79.2756298 C98.9964004,77.3240782 98.9981345,74.1582538 97.0465828,72.2045631 C95.0950312,70.2508724 91.9292068,70.2491383 89.9755161,72.2006899 L73.6399239,88.5183964 L65.2938854,82.4311357 L67.3475166,86.4708029 L67.3475166,60.0346715 L88.6470588,60.0346715 C91.4084826,60.0346715 93.6470588,57.7960953 93.6470588,55.0346715 C93.6470588,52.2732478 91.4084826,50.0346715 88.6470588,50.0346715 L73.524205,50.0346715 Z" id="Rectangle-10" fill-opacity="0.7" fill="#FFFFFF" sketch:type="MSShapeGroup"></path>
            <polygon id="Polygon-1" stroke-opacity="0.7" stroke="#FFFFFF" stroke-width="10" sketch:type="MSShapeGroup" transform="translate(105.173678, 105.451676) rotate(-180.000000) translate(-105.173678, -105.451676) " points="105.173678 0.451675982 205.034612 73.0048916 166.891129 190.39846 43.4562261 190.39846 5.31274338 73.0048916 "></polygon>
        </g>
    </g>
</svg>